<mxfile host="app.diagrams.net" modified="2023-05-28T19:30:46.025Z" agent="Mozilla/5.0 (Macintosh; Intel Mac OS X 10_15_7) AppleWebKit/537.36 (KHTML, like Gecko) Chrome/113.0.0.0 Safari/537.36" etag="NNO1dMAuvFCQvnogp-Z8" version="21.3.5" type="device">
  <diagram name="Functional Diagram" id="ufa0lLLInginGB9UVhgG">
    <mxGraphModel dx="1973" dy="1038" grid="1" gridSize="10" guides="1" tooltips="1" connect="1" arrows="1" fold="1" page="1" pageScale="1" pageWidth="1100" pageHeight="850" math="0" shadow="0">
      <root>
        <mxCell id="0" />
        <mxCell id="1" parent="0" />
        <mxCell id="2QM9sn8CAkpO6FXMNuXR-11" value="&lt;b&gt;Business Processes&lt;/b&gt;" style="fillColor=#EFF0F3;strokeColor=none;dashed=0;verticalAlign=top;fontStyle=0;fontColor=#232F3D;whiteSpace=wrap;html=1;labelBackgroundColor=#eff0f3;" parent="1" vertex="1">
          <mxGeometry x="62" y="263.93" width="160" height="155.69" as="geometry" />
        </mxCell>
        <mxCell id="m01nbZJdQ4zT8pmcxxm--37" value="&lt;b&gt;Operationalize Predictions&lt;/b&gt;" style="fillColor=#EFF0F3;strokeColor=none;dashed=0;verticalAlign=top;fontStyle=0;fontColor=#232F3D;whiteSpace=wrap;html=1;" parent="1" vertex="1">
          <mxGeometry x="255" y="263.93" width="400" height="163.25" as="geometry" />
        </mxCell>
        <mxCell id="m01nbZJdQ4zT8pmcxxm--36" value="&lt;b&gt;Model Training &amp;amp; Inference&lt;/b&gt;" style="fillColor=#EFF0F3;strokeColor=none;dashed=0;verticalAlign=top;fontStyle=0;fontColor=#232F3D;whiteSpace=wrap;html=1;" parent="1" vertex="1">
          <mxGeometry x="697" y="263.93" width="455" height="160" as="geometry" />
        </mxCell>
        <mxCell id="m01nbZJdQ4zT8pmcxxm--35" value="&lt;b&gt;Data Sources&lt;/b&gt;" style="fillColor=#EFF0F3;strokeColor=none;dashed=0;verticalAlign=top;fontStyle=0;fontColor=#232F3D;whiteSpace=wrap;html=1;labelBackgroundColor=#eff0f3;" parent="1" vertex="1">
          <mxGeometry x="62" y="57.93" width="158" height="152.07" as="geometry" />
        </mxCell>
        <mxCell id="m01nbZJdQ4zT8pmcxxm--34" value="&lt;b&gt;Data Ingestion and Storage&lt;/b&gt;" style="fillColor=#EFF0F3;strokeColor=none;dashed=0;verticalAlign=top;fontStyle=0;fontColor=#232F3D;whiteSpace=wrap;html=1;labelBackgroundColor=#EFF0F3;" parent="1" vertex="1">
          <mxGeometry x="240" y="57.93" width="140" height="160" as="geometry" />
        </mxCell>
        <mxCell id="wHcP6dZyptFnRdKUoRb5-2" style="edgeStyle=orthogonalEdgeStyle;rounded=0;orthogonalLoop=1;jettySize=auto;html=1;entryX=0;entryY=0.5;entryDx=0;entryDy=0;entryPerimeter=0;" parent="1" source="S7b122qS-cLrcYWj2jss-27" target="wHcP6dZyptFnRdKUoRb5-1" edge="1">
          <mxGeometry relative="1" as="geometry" />
        </mxCell>
        <mxCell id="S7b122qS-cLrcYWj2jss-27" value="&lt;span style=&quot;background-color: rgb(239, 240, 243);&quot;&gt;Image Data (Kaggle)&lt;/span&gt;" style="image;points=[];aspect=fixed;html=1;align=center;shadow=0;dashed=0;image=img/lib/allied_telesis/computer_and_terminals/Server_Desktop.svg;" parent="1" vertex="1">
          <mxGeometry x="108.99999999999999" y="97.93" width="63.11" height="80" as="geometry" />
        </mxCell>
        <mxCell id="m01nbZJdQ4zT8pmcxxm--32" value="Streamlit&lt;br&gt;Web Interface" style="image;points=[];aspect=fixed;html=1;align=center;shadow=0;dashed=0;image=img/lib/allied_telesis/computer_and_terminals/Laptop.svg;labelBackgroundColor=#eff0f3;" parent="1" vertex="1">
          <mxGeometry x="283.13" y="298.18" width="78.87" height="80" as="geometry" />
        </mxCell>
        <mxCell id="S7b122qS-cLrcYWj2jss-29" style="edgeStyle=orthogonalEdgeStyle;rounded=0;orthogonalLoop=1;jettySize=auto;html=1;entryX=1;entryY=0.5;entryDx=0;entryDy=0;entryPerimeter=0;" parent="1" source="S7b122qS-cLrcYWj2jss-8" target="S7b122qS-cLrcYWj2jss-10" edge="1">
          <mxGeometry relative="1" as="geometry" />
        </mxCell>
        <mxCell id="S7b122qS-cLrcYWj2jss-8" value="AWS S3 Bucket&lt;br&gt;Trained Model Objects" style="sketch=0;points=[[0,0,0],[0.25,0,0],[0.5,0,0],[0.75,0,0],[1,0,0],[0,1,0],[0.25,1,0],[0.5,1,0],[0.75,1,0],[1,1,0],[0,0.25,0],[0,0.5,0],[0,0.75,0],[1,0.25,0],[1,0.5,0],[1,0.75,0]];outlineConnect=0;fontColor=#232F3E;gradientColor=#60A337;gradientDirection=north;fillColor=#277116;strokeColor=#ffffff;dashed=0;verticalLabelPosition=bottom;verticalAlign=top;align=center;html=1;fontSize=12;fontStyle=0;aspect=fixed;shape=mxgraph.aws4.resourceIcon;resIcon=mxgraph.aws4.s3;labelBackgroundColor=#EFF0F3;" parent="1" vertex="1">
          <mxGeometry x="888" y="298.93" width="80" height="80" as="geometry" />
        </mxCell>
        <mxCell id="S7b122qS-cLrcYWj2jss-30" style="edgeStyle=orthogonalEdgeStyle;rounded=0;orthogonalLoop=1;jettySize=auto;html=1;entryX=1;entryY=0.5;entryDx=0;entryDy=0;entryPerimeter=0;exitX=0;exitY=0.5;exitDx=0;exitDy=0;exitPerimeter=0;" parent="1" source="oHCDjZjMei8UxYcooUsv-13" target="S7b122qS-cLrcYWj2jss-8" edge="1">
          <mxGeometry relative="1" as="geometry">
            <mxPoint x="1043" y="338.93000000000006" as="sourcePoint" />
          </mxGeometry>
        </mxCell>
        <mxCell id="liwuj_oyVGzRcB01UIEL-6" value="&lt;span style=&quot;background-color: rgb(239, 240, 243);&quot;&gt;trained&lt;br&gt;models&lt;/span&gt;" style="edgeLabel;html=1;align=center;verticalAlign=middle;resizable=0;points=[];" parent="S7b122qS-cLrcYWj2jss-30" vertex="1" connectable="0">
          <mxGeometry x="0.075" y="1" relative="1" as="geometry">
            <mxPoint x="3" y="17" as="offset" />
          </mxGeometry>
        </mxCell>
        <mxCell id="liwuj_oyVGzRcB01UIEL-40" style="edgeStyle=orthogonalEdgeStyle;rounded=0;orthogonalLoop=1;jettySize=auto;html=1;entryX=0;entryY=0.5;entryDx=0;entryDy=0;entryPerimeter=0;" parent="1" source="S7b122qS-cLrcYWj2jss-10" target="S7b122qS-cLrcYWj2jss-8" edge="1">
          <mxGeometry relative="1" as="geometry" />
        </mxCell>
        <mxCell id="FB_ZD8XKhJtbQehK7H4x-2" style="edgeStyle=orthogonalEdgeStyle;rounded=0;orthogonalLoop=1;jettySize=auto;html=1;entryX=1;entryY=0.5;entryDx=0;entryDy=0;entryPerimeter=0;" edge="1" parent="1" source="S7b122qS-cLrcYWj2jss-10" target="S7b122qS-cLrcYWj2jss-16">
          <mxGeometry relative="1" as="geometry" />
        </mxCell>
        <mxCell id="S7b122qS-cLrcYWj2jss-10" value="AWS Sagemaker&lt;br&gt;Hosted Endpoint" style="sketch=0;points=[[0,0,0],[0.25,0,0],[0.5,0,0],[0.75,0,0],[1,0,0],[0,1,0],[0.25,1,0],[0.5,1,0],[0.75,1,0],[1,1,0],[0,0.25,0],[0,0.5,0],[0,0.75,0],[1,0.25,0],[1,0.5,0],[1,0.75,0]];outlineConnect=0;fontColor=#232F3E;gradientColor=#4AB29A;gradientDirection=north;fillColor=#116D5B;strokeColor=#ffffff;dashed=0;verticalLabelPosition=bottom;verticalAlign=top;align=center;html=1;fontSize=12;fontStyle=0;aspect=fixed;shape=mxgraph.aws4.resourceIcon;resIcon=mxgraph.aws4.sagemaker;" parent="1" vertex="1">
          <mxGeometry x="734" y="298.93" width="80" height="80" as="geometry" />
        </mxCell>
        <mxCell id="S7b122qS-cLrcYWj2jss-16" value="Amazon API Gateway&lt;br&gt;Access Predictions" style="sketch=0;points=[[0,0,0],[0.25,0,0],[0.5,0,0],[0.75,0,0],[1,0,0],[0,1,0],[0.25,1,0],[0.5,1,0],[0.75,1,0],[1,1,0],[0,0.25,0],[0,0.5,0],[0,0.75,0],[1,0.25,0],[1,0.5,0],[1,0.75,0]];outlineConnect=0;fontColor=#232F3E;gradientColor=#FF4F8B;gradientDirection=north;fillColor=#BC1356;strokeColor=#ffffff;dashed=0;verticalLabelPosition=bottom;verticalAlign=top;align=center;html=1;fontSize=12;fontStyle=0;aspect=fixed;shape=mxgraph.aws4.resourceIcon;resIcon=mxgraph.aws4.api_gateway;" parent="1" vertex="1">
          <mxGeometry x="532" y="298.18" width="80" height="80" as="geometry" />
        </mxCell>
        <mxCell id="oHCDjZjMei8UxYcooUsv-13" value="AWS ECS&lt;br&gt;Model Training" style="sketch=0;points=[[0,0,0],[0.25,0,0],[0.5,0,0],[0.75,0,0],[1,0,0],[0,1,0],[0.25,1,0],[0.5,1,0],[0.75,1,0],[1,1,0],[0,0.25,0],[0,0.5,0],[0,0.75,0],[1,0.25,0],[1,0.5,0],[1,0.75,0]];outlineConnect=0;fontColor=#232F3E;gradientColor=#F78E04;gradientDirection=north;fillColor=#D05C17;strokeColor=#ffffff;dashed=0;verticalLabelPosition=bottom;verticalAlign=top;align=center;html=1;fontSize=12;fontStyle=0;aspect=fixed;shape=mxgraph.aws4.resourceIcon;resIcon=mxgraph.aws4.ecs;" parent="1" vertex="1">
          <mxGeometry x="1052" y="298.93" width="80" height="80" as="geometry" />
        </mxCell>
        <mxCell id="FB_ZD8XKhJtbQehK7H4x-4" style="edgeStyle=orthogonalEdgeStyle;rounded=0;orthogonalLoop=1;jettySize=auto;html=1;exitX=1;exitY=0.5;exitDx=0;exitDy=0;exitPerimeter=0;entryX=0.5;entryY=0;entryDx=0;entryDy=0;entryPerimeter=0;" edge="1" parent="1" source="wHcP6dZyptFnRdKUoRb5-1" target="oHCDjZjMei8UxYcooUsv-13">
          <mxGeometry relative="1" as="geometry">
            <Array as="points">
              <mxPoint x="460" y="138" />
              <mxPoint x="460" y="240" />
              <mxPoint x="1092" y="240" />
            </Array>
          </mxGeometry>
        </mxCell>
        <mxCell id="FB_ZD8XKhJtbQehK7H4x-5" style="edgeStyle=orthogonalEdgeStyle;rounded=0;orthogonalLoop=1;jettySize=auto;html=1;" edge="1" parent="1" source="wHcP6dZyptFnRdKUoRb5-1" target="ESBq7V7qB3ubexEb3FsM-2">
          <mxGeometry relative="1" as="geometry" />
        </mxCell>
        <mxCell id="wHcP6dZyptFnRdKUoRb5-1" value="AWS S3&lt;br&gt;Raw Images" style="sketch=0;points=[[0,0,0],[0.25,0,0],[0.5,0,0],[0.75,0,0],[1,0,0],[0,1,0],[0.25,1,0],[0.5,1,0],[0.75,1,0],[1,1,0],[0,0.25,0],[0,0.5,0],[0,0.75,0],[1,0.25,0],[1,0.5,0],[1,0.75,0]];outlineConnect=0;fontColor=#232F3E;gradientColor=#60A337;gradientDirection=north;fillColor=#277116;strokeColor=#ffffff;dashed=0;verticalLabelPosition=bottom;verticalAlign=top;align=center;html=1;fontSize=12;fontStyle=0;aspect=fixed;shape=mxgraph.aws4.resourceIcon;resIcon=mxgraph.aws4.s3;" parent="1" vertex="1">
          <mxGeometry x="272" y="97.93" width="80" height="80" as="geometry" />
        </mxCell>
        <mxCell id="ESBq7V7qB3ubexEb3FsM-1" value="&lt;b&gt;Model Retraining&lt;/b&gt;" style="fillColor=#EFF0F3;strokeColor=none;dashed=0;verticalAlign=top;fontStyle=0;fontColor=#232F3D;whiteSpace=wrap;html=1;labelBackgroundColor=#EFF0F3;" parent="1" vertex="1">
          <mxGeometry x="560" y="63" width="390" height="160" as="geometry" />
        </mxCell>
        <mxCell id="ESBq7V7qB3ubexEb3FsM-6" style="edgeStyle=orthogonalEdgeStyle;rounded=0;orthogonalLoop=1;jettySize=auto;html=1;entryX=0;entryY=0.5;entryDx=0;entryDy=0;entryPerimeter=0;" parent="1" source="ESBq7V7qB3ubexEb3FsM-2" target="ESBq7V7qB3ubexEb3FsM-4" edge="1">
          <mxGeometry relative="1" as="geometry" />
        </mxCell>
        <mxCell id="ESBq7V7qB3ubexEb3FsM-2" value="Amazon EventBridge&lt;br&gt;Triggered retraining" style="sketch=0;points=[[0,0,0],[0.25,0,0],[0.5,0,0],[0.75,0,0],[1,0,0],[0,1,0],[0.25,1,0],[0.5,1,0],[0.75,1,0],[1,1,0],[0,0.25,0],[0,0.5,0],[0,0.75,0],[1,0.25,0],[1,0.5,0],[1,0.75,0]];outlineConnect=0;fontColor=#232F3E;gradientColor=#FF4F8B;gradientDirection=north;fillColor=#BC1356;strokeColor=#ffffff;dashed=0;verticalLabelPosition=bottom;verticalAlign=top;align=center;html=1;fontSize=12;fontStyle=0;aspect=fixed;shape=mxgraph.aws4.resourceIcon;resIcon=mxgraph.aws4.eventbridge;" parent="1" vertex="1">
          <mxGeometry x="590" y="97.96" width="80" height="80" as="geometry" />
        </mxCell>
        <mxCell id="ESBq7V7qB3ubexEb3FsM-10" style="edgeStyle=orthogonalEdgeStyle;rounded=0;orthogonalLoop=1;jettySize=auto;html=1;entryX=0.5;entryY=1;entryDx=0;entryDy=0;entryPerimeter=0;exitX=1;exitY=0.5;exitDx=0;exitDy=0;exitPerimeter=0;" parent="1" target="S7b122qS-cLrcYWj2jss-8" edge="1" source="8MJu5eZEX09uWWYRtjKN-5">
          <mxGeometry relative="1" as="geometry">
            <Array as="points">
              <mxPoint x="1180" y="138" />
              <mxPoint x="1180" y="450" />
              <mxPoint x="928" y="450" />
            </Array>
            <mxPoint x="1080" y="137.9999999999999" as="sourcePoint" />
          </mxGeometry>
        </mxCell>
        <mxCell id="8MJu5eZEX09uWWYRtjKN-3" value="Retrained Model: TMO" style="edgeLabel;html=1;align=center;verticalAlign=middle;resizable=0;points=[];" parent="ESBq7V7qB3ubexEb3FsM-10" vertex="1" connectable="0">
          <mxGeometry x="-0.5772" y="-1" relative="1" as="geometry">
            <mxPoint x="-31" y="-5" as="offset" />
          </mxGeometry>
        </mxCell>
        <mxCell id="8MJu5eZEX09uWWYRtjKN-6" style="edgeStyle=orthogonalEdgeStyle;rounded=0;orthogonalLoop=1;jettySize=auto;html=1;entryX=0;entryY=0.5;entryDx=0;entryDy=0;entryPerimeter=0;" parent="1" source="ESBq7V7qB3ubexEb3FsM-4" target="8MJu5eZEX09uWWYRtjKN-5" edge="1">
          <mxGeometry relative="1" as="geometry" />
        </mxCell>
        <mxCell id="ESBq7V7qB3ubexEb3FsM-4" value="AWS Lambda&lt;br&gt;Create EC2 Instance" style="sketch=0;points=[[0,0,0],[0.25,0,0],[0.5,0,0],[0.75,0,0],[1,0,0],[0,1,0],[0.25,1,0],[0.5,1,0],[0.75,1,0],[1,1,0],[0,0.25,0],[0,0.5,0],[0,0.75,0],[1,0.25,0],[1,0.5,0],[1,0.75,0]];outlineConnect=0;fontColor=#232F3E;gradientColor=#F78E04;gradientDirection=north;fillColor=#D05C17;strokeColor=#ffffff;dashed=0;verticalLabelPosition=bottom;verticalAlign=top;align=center;html=1;fontSize=12;fontStyle=0;aspect=fixed;shape=mxgraph.aws4.resourceIcon;resIcon=mxgraph.aws4.lambda;" parent="1" vertex="1">
          <mxGeometry x="720" y="97.96000000000001" width="80" height="80" as="geometry" />
        </mxCell>
        <mxCell id="8MJu5eZEX09uWWYRtjKN-5" value="AWS ECS&lt;br&gt;Model Re-Training" style="sketch=0;points=[[0,0,0],[0.25,0,0],[0.5,0,0],[0.75,0,0],[1,0,0],[0,1,0],[0.25,1,0],[0.5,1,0],[0.75,1,0],[1,1,0],[0,0.25,0],[0,0.5,0],[0,0.75,0],[1,0.25,0],[1,0.5,0],[1,0.75,0]];outlineConnect=0;fontColor=#232F3E;gradientColor=#F78E04;gradientDirection=north;fillColor=#D05C17;strokeColor=#ffffff;dashed=0;verticalLabelPosition=bottom;verticalAlign=top;align=center;html=1;fontSize=12;fontStyle=0;aspect=fixed;shape=mxgraph.aws4.resourceIcon;resIcon=mxgraph.aws4.ecs;" parent="1" vertex="1">
          <mxGeometry x="840" y="97.96000000000001" width="80" height="80" as="geometry" />
        </mxCell>
        <mxCell id="8MJu5eZEX09uWWYRtjKN-11" style="edgeStyle=orthogonalEdgeStyle;rounded=0;orthogonalLoop=1;jettySize=auto;html=1;entryX=0;entryY=0.5;entryDx=0;entryDy=0;entryPerimeter=0;" parent="1" source="8MJu5eZEX09uWWYRtjKN-10" target="S7b122qS-cLrcYWj2jss-16" edge="1">
          <mxGeometry relative="1" as="geometry" />
        </mxCell>
        <mxCell id="8MJu5eZEX09uWWYRtjKN-12" style="edgeStyle=orthogonalEdgeStyle;rounded=0;orthogonalLoop=1;jettySize=auto;html=1;" parent="1" source="8MJu5eZEX09uWWYRtjKN-10" target="m01nbZJdQ4zT8pmcxxm--32" edge="1">
          <mxGeometry relative="1" as="geometry" />
        </mxCell>
        <mxCell id="8MJu5eZEX09uWWYRtjKN-10" value="AWS ECS&lt;br&gt;Streamlit Hosted App" style="sketch=0;points=[[0,0,0],[0.25,0,0],[0.5,0,0],[0.75,0,0],[1,0,0],[0,1,0],[0.25,1,0],[0.5,1,0],[0.75,1,0],[1,1,0],[0,0.25,0],[0,0.5,0],[0,0.75,0],[1,0.25,0],[1,0.5,0],[1,0.75,0]];outlineConnect=0;fontColor=#232F3E;gradientColor=#F78E04;gradientDirection=north;fillColor=#D05C17;strokeColor=#ffffff;dashed=0;verticalLabelPosition=bottom;verticalAlign=top;align=center;html=1;fontSize=12;fontStyle=0;aspect=fixed;shape=mxgraph.aws4.resourceIcon;resIcon=mxgraph.aws4.ecs;" parent="1" vertex="1">
          <mxGeometry x="409" y="298.18" width="80" height="80" as="geometry" />
        </mxCell>
        <mxCell id="8MJu5eZEX09uWWYRtjKN-14" style="edgeStyle=orthogonalEdgeStyle;rounded=0;orthogonalLoop=1;jettySize=auto;html=1;" parent="1" source="8MJu5eZEX09uWWYRtjKN-13" target="m01nbZJdQ4zT8pmcxxm--32" edge="1">
          <mxGeometry relative="1" as="geometry" />
        </mxCell>
        <mxCell id="8MJu5eZEX09uWWYRtjKN-13" value="Customers" style="sketch=0;outlineConnect=0;fontColor=#232F3E;gradientColor=none;fillColor=#232F3D;strokeColor=none;dashed=0;verticalLabelPosition=bottom;verticalAlign=top;align=center;html=1;fontSize=12;fontStyle=0;aspect=fixed;pointerEvents=1;shape=mxgraph.aws4.users;" parent="1" vertex="1">
          <mxGeometry x="107" y="298.56" width="78" height="78" as="geometry" />
        </mxCell>
      </root>
    </mxGraphModel>
  </diagram>
</mxfile>
